<?xml version="1.0" encoding="utf-8"?>
<!-- Generator: Adobe Illustrator 26.1.0, SVG Export Plug-In . SVG Version: 6.00 Build 0)  -->
<svg version="1.1" xmlns="http://www.w3.org/2000/svg" xmlns:xlink="http://www.w3.org/1999/xlink" x="0px" y="0px"
	 viewBox="0 0 156.11 141.68" style="enable-background:new 0 0 156.11 141.68;" xml:space="preserve">
<style type="text/css">
	.st0{fill:#FFFFFF;}
	.st1{fill:#00693B;}
</style>
<g id="LockUP">
</g>
<g id="Layer_2">
	<g>
		<g id="LOGO">
			<path class="st0" d="M118.03,70.84c0,23.24-18.84,42.07-42.07,42.07c-23.23,0-42.07-18.84-42.07-42.07
				c0-23.24,18.84-42.07,42.07-42.07C99.19,28.77,118.03,47.6,118.03,70.84"/>
			<path class="st1" d="M80.19,46.96c-0.37-0.07-2.15-0.36-4.23-0.36c-2.08,0-3.86,0.3-4.23,0.36c-0.21,0.04-0.29-0.17-0.13-0.29
				c0.14-0.11,4.36-3.32,4.36-3.32s4.22,3.21,4.36,3.32C80.48,46.79,80.4,47,80.19,46.96 M72.9,67.79c0,0-0.22,0.08-0.28,0.28
				c0.88,0.68,1.49,2.22,3.33,2.22c1.84,0,2.45-1.54,3.33-2.22c-0.06-0.2-0.28-0.28-0.28-0.28s-1.15,0.27-3.05,0.27
				C74.06,68.06,72.9,67.79,72.9,67.79 M75.95,65.19c-0.51,0-0.62-0.19-0.97-0.19c-0.33,0-0.98,0.27-1.12,0.51
				c0.01,0.12,0.06,0.23,0.14,0.33c0.75,0.11,1.08,0.53,1.95,0.53c0.87,0,1.2-0.42,1.95-0.53c0.09-0.1,0.13-0.21,0.15-0.33
				C77.91,65.27,77.26,65,76.93,65C76.58,65,76.47,65.19,75.95,65.19 M117.96,73.15c-0.05,1.01-0.14,2-0.27,2.99
				c-4.76,0.79-6.46-3.46-11.34-3.24c0.29,1.03,0.53,2.09,0.71,3.17c4.02,0,5.64,3.76,10.12,3.2c-0.23,1.15-0.52,2.29-0.84,3.4
				c-3.54,0.35-4.79-3.17-8.88-3.07c0.03,0.58,0.05,1.17,0.05,1.77c0,0.33-0.01,0.66-0.02,0.98c3.49-0.04,4.63,3.19,7.96,3.03
				c-0.42,1.13-0.88,2.24-1.39,3.32c-2.39-0.13-3.22-3.2-6.85-2.96c-0.11,0.79-0.25,1.56-0.41,2.33c3.16-0.22,3.84,2.69,6.1,2.92
				c-0.58,1.05-1.2,2.08-1.86,3.07c-1.34-0.72-2.5-2.88-5.05-3.02c0.26-0.8,0.49-1.62,0.68-2.45c-2.26,0-4.84-0.88-7-2.85
				c0.7-3.99-5.49-8.05-5.49-10.98c0-3.17,1.6-4.93,1.6-9.21c0-3.18-1.54-6.62-3.87-8.98c-0.45-0.46-0.91-0.83-1.44-1.16
				c2.14,2.65,3.78,5.78,3.78,9.41c0,4.03-1.88,6.16-1.88,9.88c0,3.72,5.44,6.94,5.44,10.77c0,1.51-0.48,2.98-2.07,5.88
				c2.44,2.44,5.62,3.77,7.68,3.77c0.67,0,1.02-0.2,1.26-0.72c0.21-0.45,0.4-0.91,0.58-1.37c2.21,0.09,3.22,2.1,4.45,2.9
				c-0.67,0.9-1.38,1.77-2.12,2.62c-0.82-0.91-1.92-2.44-3.54-2.86c-0.29,0.56-0.59,1.12-0.92,1.66c1.39,0.38,2.34,1.78,3.08,2.7
				c-0.79,0.82-1.62,1.61-2.48,2.37c-0.54-0.83-1.37-1.9-2.31-2.47c-0.35,0.47-0.71,0.93-1.08,1.37c0.8,0.54,1.5,1.51,1.96,2.3
				c-0.99,0.8-2.02,1.55-3.08,2.26c-0.52-4.27-6.36-7.2-4.78-12.16c-0.52,0.87-1.13,1.97-1.13,3.28c0,3.59,3.82,6.44,4.13,10
				c-0.79,0.47-1.6,0.92-2.43,1.34c-0.14-3.92-4.19-8.21-4.19-11.43c0-3.59,4.7-7.2,4.7-11.44c0-4.24-5.43-7.18-5.43-10.9
				c0-3.72,2.31-5.86,2.31-10.64c0-3.5-1.66-7.03-4.22-9.29c-0.45-0.4-0.9-0.72-1.44-1c2.42,2.9,3.82,5.54,3.82,9.53
				c0,4.49-2.64,6.98-2.64,11.37c0,4.39,5.32,6.84,5.32,10.93c0,4.09-4.96,7.55-4.96,11.75c0,3.83,4.37,7.65,4.43,12.19
				c-0.96,0.42-1.93,0.8-2.92,1.14c0.56-4.59-4.36-9.32-4.36-13.06c0-4.09,5.14-7.61,5.14-12.02c0-4.41-5.23-6.47-5.23-10.99
				c0-4.53,3.21-7.04,3.21-12.04c0-3.9-1.92-7.41-4.74-9.58c-0.06-0.05-0.12-0.09-0.18-0.13c-0.27-0.2-0.48,0.04-0.3,0.27
				c1.99,2.49,3.06,5,3.06,8.72c0,4.58-3.69,8.3-3.69,12.73c0,5.23,4.95,6.73,4.95,11.02c0,4.29-5.31,7.73-5.31,12.29
				c0,4.23,5.02,8.92,4.16,13.8c-1.01,0.26-2.03,0.48-3.06,0.67c0.94-6.07-3.98-10.44-3.98-14.41c0-4.3,5.49-8.14,5.49-12.34
				c0-3.96-3.94-5.26-4.46-9.32c-0.07-0.55-0.52-0.96-1.13-0.86c-0.8,0.15-1.83,0.68-3.44,0.68c-1.61,0-2.64-0.53-3.44-0.68
				c-0.61-0.1-1.06,0.31-1.13,0.86c-0.52,4.06-4.46,5.35-4.46,9.32c0,4.21,5.49,8.04,5.49,12.34c0,3.97-4.92,8.34-3.98,14.41
				c-1.04-0.19-2.06-0.41-3.06-0.67c-0.86-4.88,4.16-9.57,4.16-13.8c0-4.56-5.31-7.99-5.31-12.29c0-4.29,4.95-5.79,4.95-11.02
				c0-4.44-3.69-8.15-3.69-12.73c0-3.72,1.07-6.24,3.06-8.72c0.19-0.23-0.03-0.47-0.3-0.27c-0.06,0.04-0.12,0.09-0.18,0.13
				c-2.81,2.17-4.74,5.68-4.74,9.58c0,5,3.21,7.51,3.21,12.04c0,4.53-5.23,6.58-5.23,10.99c0,4.41,5.14,7.93,5.14,12.02
				c0,3.74-4.92,8.47-4.36,13.06c-0.99-0.34-1.96-0.73-2.92-1.14c0.07-4.54,4.43-8.36,4.43-12.19c0-4.21-4.96-7.66-4.96-11.75
				c0-4.09,5.32-6.54,5.32-10.93c0-4.39-2.64-6.88-2.64-11.37c0-3.99,1.4-6.63,3.82-9.53c-0.54,0.28-0.98,0.6-1.44,1
				c-2.56,2.26-4.22,5.8-4.22,9.29c0,4.77,2.31,6.91,2.31,10.64c0,3.72-5.43,6.66-5.43,10.9c0,4.24,4.7,7.85,4.7,11.44
				c0,3.22-4.05,7.51-4.19,11.43c-0.83-0.42-1.63-0.87-2.43-1.34c0.3-3.57,4.13-6.41,4.13-10c0-1.31-0.61-2.41-1.13-3.28
				c1.57,4.96-4.26,7.89-4.78,12.16c-1.06-0.71-2.09-1.46-3.08-2.26c0.46-0.79,1.16-1.76,1.96-2.3c-0.37-0.45-0.73-0.9-1.08-1.37
				c-0.94,0.57-1.77,1.63-2.31,2.47c-0.86-0.75-1.68-1.55-2.48-2.37c0.74-0.92,1.69-2.32,3.08-2.7c-0.32-0.54-0.63-1.09-0.92-1.66
				c-1.62,0.42-2.72,1.95-3.54,2.86c-0.74-0.84-1.45-1.71-2.12-2.62c1.22-0.8,2.24-2.81,4.45-2.9c0.18,0.46,0.38,0.92,0.58,1.37
				c0.24,0.52,0.6,0.72,1.26,0.72c2.05,0,5.23-1.33,7.68-3.77c-1.59-2.89-2.07-4.37-2.07-5.88c0-3.83,5.44-7.05,5.44-10.77
				c0-3.72-1.88-5.85-1.88-9.88c0-3.63,1.64-6.77,3.78-9.41c-0.53,0.33-0.99,0.7-1.44,1.16c-2.33,2.35-3.87,5.8-3.87,8.98
				c0,4.28,1.61,6.04,1.61,9.21c0,2.92-6.2,6.99-5.49,10.98c-2.16,1.97-4.74,2.85-7,2.85c0.19,0.83,0.42,1.65,0.68,2.45
				c-2.54,0.13-3.7,2.3-5.04,3.02c-0.66-1-1.28-2.02-1.86-3.07c2.26-0.23,2.94-3.14,6.1-2.92c-0.17-0.77-0.3-1.54-0.41-2.33
				c-3.64-0.24-4.46,2.82-6.85,2.96c-0.51-1.08-0.97-2.19-1.39-3.32c3.33,0.15,4.46-3.08,7.96-3.03c-0.01-0.33-0.02-0.66-0.02-0.98
				c0-0.59,0.02-1.18,0.05-1.77c-4.1-0.1-5.34,3.42-8.88,3.07c-0.33-1.11-0.61-2.25-0.84-3.4c4.47,0.55,6.09-3.21,10.12-3.2
				c0.18-1.08,0.42-2.13,0.71-3.17c-4.88-0.21-6.58,4.03-11.34,3.24c-0.12-0.99-0.21-1.98-0.27-2.99c5.54,0.62,7.61-3.93,12.65-3.38
				c0.48-1.2,1.03-2.37,1.65-3.49c-6.32-1.11-8.46,4.17-14.34,3.36c0.63-22.68,19.22-40.87,42.05-40.87s41.42,18.19,42.05,40.87
				c-5.88,0.81-8.03-4.47-14.35-3.36c0.62,1.12,1.17,2.29,1.65,3.49C110.35,69.21,112.43,73.77,117.96,73.15 M57.87,55.5
				c-3.1-1.27-6.85-0.97-10.05,1.08c-0.5-2.98-2.11-5.63-4.42-7.23c-0.32-0.22-0.65-0.01-0.62,0.36c0.49,6.3-3.19,11.76-7.72,16.57
				c4.67,1.4,8.64-4.6,14.69-2.51C51.92,60.55,54.68,57.74,57.87,55.5 M75.95,51.69c-3.91,0-7.18,2.21-8.03,5.06
				c-0.07,0.22,0.02,0.36,0.28,0.25c0.7-0.32,1.5-0.47,2.37-0.47c1.59,0,3,0.58,3.83,1.6c0.37,1.21,0.4,2.96-0.02,3.97
				c-0.66-0.15-0.89-0.65-1.53-0.65c-0.64,0-1.14,0.45-2.22,0.45c-1.09,0-1.21-0.51-1.93-0.51c-0.84,0-1,0.86-1,1.84
				c0,4.35,4,10.34,8.25,10.34c4.26,0,8.25-5.99,8.25-10.34c0-0.98-0.2-1.81-1.08-1.93c-0.44,0.31-0.84,0.6-1.84,0.6
				c-1.09,0-1.39-0.45-2.03-0.45c-0.77,0-0.69,1.63-1.61,1.72c-0.61-1.47-0.64-3.35-0.13-5.03c0.83-1.02,2.23-1.6,3.83-1.6
				c0.87,0,1.67,0.15,2.37,0.47c0.25,0.11,0.34-0.03,0.28-0.25C83.13,53.9,79.86,51.69,75.95,51.69 M82.17,57.94
				c-0.94,0-2.04,0.29-2.73,1.06c-0.07,0.21-0.07,0.52,0.03,0.73c1.7-0.58,3.2-0.6,3.92,0.21c0.39-0.35,0.51-0.67,0.51-1.03
				C83.9,58.33,83.33,57.94,82.17,57.94 M68.51,59.93c0.82-0.82,2.55-0.79,4.34-0.12c0.08-0.89-1.52-1.87-3.12-1.87
				c-1.16,0-1.73,0.39-1.73,0.96C68,59.26,68.13,59.58,68.51,59.93 M95.43,45.2c-3.08,0.22-5.76,1.28-7.93,3.04
				c0.92-2.61,2.09-4.89,3.57-7.1c-3.92,0.42-7.21,1.85-9.6,4.31l-1.87-4.92l4.16-3.68l-5.57-0.39l-2.23-5.18l-2.22,5.18l-5.57,0.39
				l4.16,3.68l-1.87,4.92c-2.4-2.45-5.68-3.89-9.6-4.31c1.48,2.21,2.65,4.49,3.57,7.1c-2.17-1.77-4.84-2.82-7.93-3.04
				c1.85,2.38,3.49,4.91,4.7,7.64c0.14,0.31,0.43,0.41,0.75,0.25c4.22-2.1,8.98-3.28,14.02-3.28c5.04,0,9.8,1.18,14.02,3.28
				c0.32,0.16,0.61,0.06,0.75-0.25C91.94,50.11,93.58,47.57,95.43,45.2 M102.16,63.78c6.05-2.1,10.02,3.91,14.69,2.51
				c-4.53-4.8-8.21-10.27-7.72-16.57c0.03-0.37-0.3-0.58-0.62-0.36c-2.3,1.6-3.92,4.24-4.42,7.23c-3.21-2.06-6.95-2.35-10.05-1.08
				C97.23,57.74,99.99,60.55,102.16,63.78"/>
		</g>
		<g>
			<path class="st1" d="M99.63,109.91h2.43v0.45h-0.96v2.55h-0.53v-2.55h-0.95V109.91z M102.4,109.91h0.74l0.83,2.35h0.01l0.81-2.35
				h0.73v3h-0.5v-2.32h-0.01l-0.83,2.32h-0.43l-0.83-2.32h-0.01v2.32h-0.5V109.91z"/>
		</g>
	</g>
</g>
</svg>
